# xmcd CD database file
#
# Track frame offsets:
#	150
#	30340
#	61155
#	86450
#	105622
#	126942
#	138507
#	151782
#	183120
#	206792
#
# Disc length: 2988 seconds
#
# Revision: 0
# Processed by: cddbd v1.5.1PL0 Copyright (c) Steve Scherf et al.
# Submitted via: CDex 1.51
#
DISCID=7a0baa0a
DTITLE=原　朋直 - three door bells 〜３つの扉〜
DYEAR=1998
DGENRE=Pop
TTITLE0=オールド・アレイ
TTITLE1=エンカウンター
TTITLE2=ダイアローグ
TTITLE3=Chie
TTITLE4=時には母のない子のように
TTITLE5=ディープ・リバー
TTITLE6=ベス・ユー・イズ・マイ・ウーマン
TTITLE7=歌がるたで更かした夜
TTITLE8=あの頃
TTITLE9=竹田の子守唄
EXTD=YEAR: 1998.02.21
EXTT0=
EXTT1=
EXTT2=
EXTT3=
EXTT4=
EXTT5=
EXTT6=
EXTT7=
EXTT8=
EXTT9=
PLAYORDER=
